<svg width="601" height="384" viewBox="0 0 601 384" fill="none" xmlns="http://www.w3.org/2000/svg">
<path d="M126 353V265L158 269L192.5 267L238 255L346 223L423.5 204.5L467 202.5L496 208.5L509.5 225.5V320L461 312L403.5 314.5L341 331.5L238 365L181.5 372.5H145.5L132 365L126 353Z" fill="#192636"/>
<path d="M315.609 382.697C320.96 381.57 373.856 381.57 375.609 382.697C376.592 383.332 365.914 383.626 344.609 383.55C326.735 383.486 313.686 383.102 315.609 382.697Z" fill="white"/>
<path d="M204.859 287.784C205.272 287.737 205.609 290.402 205.609 293.706C205.609 299.285 205.478 299.632 203.773 298.567C202.607 297.839 200.234 297.677 197.273 298.121L192.609 298.82V322.2C192.609 339.815 192.917 345.77 193.859 346.363C195.283 347.256 189.303 348.548 183.325 348.639C179.886 348.692 179.634 348.52 180.575 346.763C181.199 345.595 181.609 336.021 181.609 322.636V300.443L176.575 300.926C173.221 301.249 171.061 302.042 170.106 303.304C168.812 305.013 168.67 304.591 168.641 298.947C168.614 293.651 168.876 292.697 170.359 292.696C174.162 292.693 198.286 289.61 201.109 288.766C202.758 288.273 204.445 287.831 204.859 287.784Z" fill="white"/>
<path fill-rule="evenodd" clip-rule="evenodd" d="M225.34 283.525C239.098 280.451 239.674 280.391 243.044 281.672C247.595 283.403 249.762 288.269 249.382 295.91C249.103 301.521 248.531 303.354 245.892 307.097L242.738 311.575L245.734 319.386C247.383 323.682 249.622 328.716 250.711 330.573C251.8 332.43 252.559 334.071 252.4 334.22C251.864 334.72 241.263 337.697 240.021 337.697C239.347 337.697 238.975 336.909 239.193 335.947C239.743 333.518 233.117 315.174 231.734 315.297C231.115 315.352 229.709 315.465 228.609 315.547C226.736 315.688 226.609 316.415 226.609 326.998C226.609 333.641 227.048 338.734 227.672 339.36C228.422 340.11 226.818 340.904 222.216 342.06C213.644 344.213 213.277 344.186 214.713 341.503C215.565 339.911 215.74 332.431 215.353 314.253C215.06 300.474 214.54 288.515 214.196 287.676C213.69 286.442 215.789 285.66 225.34 283.525ZM238.003 292.279C237.3 290.449 230.212 290.115 227.359 291.777C225.94 292.604 225.609 294.207 225.609 300.248C225.609 307.566 225.655 307.697 228.16 307.697C231.489 307.697 236.28 305.182 237.58 302.753C238.716 300.632 238.952 294.754 238.003 292.279Z" fill="white"/>
<path fill-rule="evenodd" clip-rule="evenodd" d="M278.732 266.849C287.549 264.313 293.476 266.934 297.609 275.198C299.838 279.656 300.102 281.388 300.044 291.197C299.97 303.725 298.319 310.634 293.639 317.999C289.899 323.884 282.706 327.672 275.242 327.687C270.944 327.696 269.936 327.258 266.627 323.947C262.098 319.414 260.609 313.679 260.609 300.753C260.609 287.68 263.27 279.907 270.071 273.106C272.984 270.193 276.872 267.384 278.732 266.849ZM287.669 279.697C284.98 274.749 280.838 274.316 276.614 278.54C272.721 282.433 271.242 288.398 271.245 300.197C271.247 307.735 271.672 311.009 272.976 313.491C276.825 320.821 283.952 319.563 287.268 310.968C289.585 304.964 289.857 283.722 287.669 279.697Z" fill="white"/>
<path d="M324.514 253.774C324.737 253.732 324.174 254.52 323.264 255.526C321.826 257.114 321.609 260.333 321.609 280.026C321.609 306.008 320.74 304.21 331.544 300.562C335.735 299.146 338.031 297.798 338.355 296.562C339.358 292.723 340.609 294.898 340.609 300.482V306.267L325.497 311.036C317.184 313.659 310.144 315.566 309.853 315.275C309.563 314.984 309.91 314.041 310.624 313.18C311.654 311.938 311.78 306.364 311.234 286.156C310.855 272.153 310.308 260.076 310.017 259.319C309.636 258.324 311.515 257.376 316.799 255.897C320.82 254.772 324.29 253.817 324.514 253.774Z" fill="white"/>
<path d="M355.609 244.28C362.519 242.457 363.298 242.408 361.809 243.897C360.944 244.762 360.609 251.608 360.609 268.397V291.697L362.859 291.618C364.096 291.574 367.797 290.786 371.081 289.868C375.5 288.632 377.38 287.547 378.315 285.697C379.462 283.43 379.581 283.803 379.591 289.697L379.603 296.197L369.856 298.586C364.495 299.899 357.488 301.775 354.284 302.754C348.923 304.393 348.524 304.403 349.284 302.867C349.738 301.949 350.109 289.369 350.109 274.911C350.109 252.845 349.873 248.477 348.637 247.714C346.892 246.636 347.135 246.516 355.609 244.28Z" fill="white"/>
<path d="M403.109 233.296C421.005 229.943 419.609 229.698 419.609 236.206C419.609 241.347 419.484 241.637 417.728 240.54C416.286 239.64 414.151 239.645 408.578 240.565C404.579 241.226 400.926 242.003 400.459 242.291C399.992 242.58 399.609 245.938 399.609 249.756C399.609 256.294 399.739 256.696 401.859 256.673C405.839 256.631 411.878 254.881 412.741 253.519C413.231 252.748 413.537 255.316 413.478 259.697C413.422 263.822 413.16 266.351 412.895 265.317C412.474 263.679 411.723 263.51 407.037 263.993C404.081 264.299 401.199 264.832 400.635 265.181C399.466 265.903 399.213 281.348 400.359 282.013C402.041 282.986 418.043 279.487 419.309 277.87C420.418 276.449 420.578 277.092 420.363 282.153L420.109 288.109L416.109 288.475C413.908 288.676 406.934 289.839 400.609 291.059L389.109 293.278L389.409 268.495C389.58 254.3 389.286 242.188 388.723 240.147C387.545 235.88 386.393 236.429 403.109 233.296Z" fill="white"/>
<path d="M462.665 226.697C468.422 226.697 469.641 226.954 468.784 227.987C467.175 229.927 458.274 248.273 455.258 255.869C452.991 261.575 452.609 264.037 452.609 272.919C452.609 278.838 453.061 283.748 453.661 284.348C454.394 285.082 452.681 285.588 447.973 286.027C440.592 286.717 439.717 286.477 441.551 284.267C442.415 283.226 442.676 279.291 442.434 270.993L442.089 259.197L436.227 247.379C433.003 240.879 429.282 234.272 427.955 232.695L425.544 229.83L430.327 229.219C432.957 228.884 436.684 228.37 438.609 228.076C441.321 227.663 441.845 227.813 440.937 228.742C439.578 230.133 439.672 230.441 444.846 241.697L448.753 250.197L452.701 240.295C454.928 234.709 456.391 229.587 456.061 228.545C455.527 226.866 456.128 226.697 462.665 226.697Z" fill="white"/>
<path fill-rule="evenodd" clip-rule="evenodd" d="M436.109 200.835C461.936 198.609 486.301 200.928 497.594 206.689C507.533 211.76 513.609 223.3 513.609 237.11V245.447L516.734 246.072C518.453 246.416 521.04 246.742 522.484 246.797L525.109 246.896L522.609 247.697C521.234 248.137 518.647 248.542 516.859 248.597C513.695 248.694 513.609 248.815 513.609 253.138C513.609 255.581 514.036 257.844 514.558 258.166C515.08 258.489 519.13 259.032 523.558 259.374C527.986 259.715 531.609 260.377 531.609 260.845C531.609 261.314 528.571 261.703 524.859 261.711C514.678 261.732 513.609 262.212 513.609 266.755C513.609 268.858 514.072 270.865 514.638 271.215C515.204 271.565 519.141 272.406 523.388 273.082L531.109 274.312L513.507 275.885L514.109 285.197L530.109 287.318L513.609 288.905V299.417L518.859 300.425C523.689 301.354 523.816 301.445 520.441 301.566C513.505 301.814 513.609 301.605 513.609 315.304C513.609 322.117 513.464 327.691 513.286 327.697C513.108 327.697 509.263 326.094 504.742 324.135C490.666 318.035 477.876 315.609 456.495 314.985C435.755 314.379 421.63 315.477 400.609 319.326C374.236 324.155 354.905 329.64 297.109 348.695C235.644 368.96 210.081 374.902 174.609 377.166C163.524 377.874 146.168 376.376 139.399 374.128C133.153 372.053 125.192 364.828 123.192 359.42C122.333 357.098 121.289 351.147 120.871 346.197L120.109 337.197L105.109 336.057L111.277 335.878C120.122 335.62 120.609 335.298 120.609 329.732V324.982L114.462 324.339C111.082 323.986 104.032 323.697 98.7964 323.697C93.5604 323.697 89.5038 323.469 89.7818 323.191C90.0665 322.913 96.935 322.302 105.052 321.834C114.047 321.314 120.089 320.539 120.513 319.852C120.897 319.231 121.033 317.202 120.816 315.343C120.426 312.002 120.35 311.956 114.369 311.331C111.04 310.983 103.994 310.637 98.7125 310.563C90.2427 310.446 89.6994 310.338 94.1089 309.651C96.8589 309.223 101.859 308.834 105.219 308.786C108.58 308.737 113.418 308.411 115.969 308.061L120.609 307.425V298.01L104.859 297.357C96.196 296.998 85.8203 296.703 81.8004 296.701C77.7808 296.699 74.7289 296.313 75.0191 295.843C75.3091 295.374 85.4816 294.753 97.6246 294.464C109.768 294.174 119.987 293.652 120.336 293.304C120.685 292.955 121.069 285.895 121.19 277.617C121.311 269.339 121.644 262.332 121.929 262.045C122.214 261.76 126.647 262.215 131.779 263.057C171.948 269.647 211.283 262.857 299.349 234.131C340.213 220.801 360.377 214.862 380.609 210.197C398.418 206.091 422.756 201.986 436.109 200.835ZM483.973 209.11C474.347 206.964 443.096 206.398 429.609 208.124C393.242 212.779 365.082 219.774 306.609 238.682C251.004 256.662 236.01 260.974 212.609 265.708C188.462 270.593 173.582 272.003 153.109 271.35C143.209 271.034 133.647 270.483 131.859 270.124L128.609 269.47V311.768C128.609 352.826 128.671 354.194 130.73 358.447C133.109 363.362 137.826 366.893 144.609 368.839C150.362 370.488 181.843 370.45 193.609 368.778C224.028 364.457 248.099 358.057 308.109 338.329C384.937 313.072 416.791 306.577 457.026 307.968C476.377 308.637 489.313 311.141 504.859 317.226C506.51 317.872 506.609 315.411 506.609 273.93C506.609 227.039 506.471 225.525 501.565 218.635C498.614 214.491 491.968 210.892 483.973 209.11Z" fill="white"/>
<path d="M347.609 368.697C351.4 367.483 418.854 367.483 418.109 368.697C417.714 369.337 404.458 369.661 381.3 369.597C361.397 369.542 346.236 369.137 347.609 368.697Z" fill="white"/>
<path d="M389.609 353.65C410.342 352.742 433.656 352.653 445.204 353.438L456.109 354.18L449.109 354.814C438.892 355.74 407.077 355.813 391.017 354.947L377.109 354.197L389.609 353.65Z" fill="white"/>
<path d="M175.949 1.65216C176.317 1.65016 177.388 3.96586 178.329 6.79865C180.429 13.1206 179.792 22.7633 176.905 28.3563C172.726 36.4542 164.026 42.5835 152.142 45.8026C145.491 47.6035 140.89 47.9824 122.279 48.2654L100.279 48.6004L99.9863 136.374C99.7873 196.113 100.032 225.321 100.754 227.824C101.338 229.846 103.237 232.696 104.973 234.157C107.503 236.287 107.846 236.992 106.704 237.715C105.92 238.212 104.829 238.63 104.279 238.644C103.729 238.659 96.1059 239.566 87.3389 240.66C78.5732 241.753 70.2766 242.648 68.9024 242.648H66.4053L69.0391 239.898C75.0351 233.637 74.7793 238.177 74.7793 138.287C74.7793 55.8421 74.6243 46.8017 73.1973 46.2547C70.2279 45.1158 52.2938 45.6798 45.4629 47.1268C37.0551 48.9088 31.392 51.9864 27.4131 56.9354C23.5383 61.7564 22.5316 71.2158 25.2773 77.0027C29.9673 86.8856 43.9478 88.142 53.2998 79.5213C57.4308 75.7143 57.692 75.6173 58.71 77.5193C60.1829 80.2723 60.048 84.3786 58.2891 90.3035C53.1328 107.665 27.0865 113.473 12.3916 100.537C3.30566 92.54 -1.66606 77.4902 0.50684 64.5633C2.33284 53.7003 5.39571 47.1321 11.8457 40.2371C25.4357 25.7093 40.4615 22.3167 80.7793 24.6727C110.673 26.4207 138.416 26.2845 147.405 24.3445C160.486 21.5235 169.814 14.9501 173.517 5.94513C174.486 3.58629 175.58 1.65433 175.949 1.65216Z" fill="white"/>
<path fill-rule="evenodd" clip-rule="evenodd" d="M190.645 60.7703C192.932 60.6523 192.956 60.7293 191.395 63.1131C190.507 64.4679 189.779 66.6506 189.779 67.9637C189.779 69.2757 192.217 80.8799 195.197 93.7488C198.177 106.619 203.391 129.748 206.784 145.148C219.451 202.64 220.986 207.815 226.188 210.599C231.208 213.286 230.19 213.742 207.149 219.118C198.829 221.059 191.742 222.648 191.397 222.648C191.055 222.648 191.676 220.967 192.777 218.913C195.507 213.82 195.32 208.632 191.779 191.148C190.129 183.001 188.779 176.2 188.779 176.033C188.778 175.867 186.55 176.851 183.827 178.219C178.038 181.126 166.454 184.246 157.827 185.222C150.827 186.014 151.706 184.322 148.777 202.648C145.768 221.476 146.268 225.365 152 227.74C156.887 229.764 155.425 230.146 119.029 236.355C115.887 236.891 114.528 235.54 116.798 234.137C119.721 232.331 123.021 222.39 126.755 204.145C128.968 193.33 130.767 183.731 130.753 182.813C130.738 181.849 128.989 180.345 126.597 179.24C124.324 178.191 120.817 175.685 118.803 173.671C111.399 166.267 111.066 152.649 118.29 152.648C120.06 152.648 120.691 153.367 121.173 155.932C121.886 159.736 127.917 166.393 131.452 167.281C132.783 167.615 133.995 167.722 134.145 167.518C134.295 167.315 136.357 157.023 138.729 144.648C141.101 132.273 145.203 111.419 147.845 98.3065C150.485 85.1954 152.384 73.7214 152.063 72.8065C151.743 71.8945 150.646 70.2169 149.625 69.0789L147.771 67.0096L168.024 63.951C179.164 62.268 189.344 60.8373 190.645 60.7703ZM170.736 94.3465C170.373 93.9065 169.577 95.9315 168.966 98.8465C165.838 113.796 154.779 168.684 154.779 169.26C154.782 170.569 166.387 168.807 172.187 166.617C175.435 165.39 179.676 162.936 181.61 161.164L185.126 157.941L180.887 138.045C174.821 109.589 171.495 95.271 170.736 94.3465Z" fill="white"/>
<path d="M289.279 41.0565C309.486 36.6965 310.522 36.7405 305.183 41.7244C303.754 43.0574 301.784 45.7233 300.805 47.6483C299.344 50.5203 285.21 92.4832 274.127 126.858C271.678 134.455 271.646 134.994 271.96 163.405C272.245 189.129 272.473 192.536 274.074 194.979C275.092 196.531 277.149 197.972 278.824 198.307C282.127 198.968 282.683 200.235 280.029 201.055C274.559 202.746 244.084 210.643 243.016 210.646C242.237 210.647 242.813 209.045 244.516 206.473L247.279 202.298L247.855 136.962L233.724 106.055C216.838 69.1291 214.346 64.3035 210.487 61.0565C208.859 59.6866 207.773 58.3214 208.071 58.0223C208.503 57.5913 229.215 53.327 246.062 50.201L248.843 49.6854L245.833 53.4315C240.202 60.4381 240.392 61.4385 253.274 92.9188C257.048 102.143 260.466 109.343 260.869 108.919C261.6 108.144 274.779 55.9596 274.779 53.8367C274.779 53.2203 273.397 51.1441 271.708 49.2205L268.638 45.7225L271.458 45.0067C273.009 44.6137 281.029 42.8365 289.279 41.0565Z" fill="white"/>
<path d="M343.683 28.0779C344.291 27.4713 348.779 27.5402 348.779 28.157C348.779 28.436 347.429 30.5294 345.779 32.8074L342.779 36.9481V101.798C342.779 137.466 343.116 166.645 343.529 166.642C345.771 166.623 367.433 160.423 371.758 158.562C374.545 157.363 377.911 155.092 379.238 153.515C380.564 151.939 381.903 150.649 382.214 150.648C383.057 150.648 382.867 174.968 382.015 176.244C381.611 176.847 374.979 178.8 367.279 180.585C359.579 182.37 344.647 186.04 334.095 188.739C323.543 191.439 314.423 193.648 313.83 193.648C313.236 193.648 313.996 191.769 315.516 189.472L318.279 185.295L318.83 42.5818L315.556 39.5838C313.056 37.2958 312.596 36.3877 313.618 35.7527C314.355 35.2946 321.324 33.4776 329.104 31.7147C336.885 29.9507 343.446 28.3149 343.683 28.0779Z" fill="white"/>
<path fill-rule="evenodd" clip-rule="evenodd" d="M504.779 0.262513C506.704 0.0595126 516.617 -0.0486984 526.806 0.0213016L545.332 0.148255L551.992 3.4295C562.941 8.82451 568.568 18.8513 569.508 34.6483C570.756 55.5962 562.25 74.6943 548.335 82.1883C546.379 83.2412 544.779 84.747 544.779 85.534C544.779 87.319 552.8 119.089 556.254 130.982C564.627 159.818 574.297 173.363 587.277 174.439C591.178 174.763 593.445 174.349 596.604 172.737L600.779 170.607L600.775 173.878C600.765 182.658 591.073 189.06 577.731 189.099C571.197 189.119 569.289 188.681 563.521 185.842C555.474 181.88 549.397 175.333 543.854 164.648C536.595 150.659 531.219 132.833 525.368 103.341C523.97 96.2968 522.635 90.2216 522.4 89.8406C522.164 89.4598 519.453 89.3021 516.376 89.491L510.779 89.8328V117.79C510.779 147.666 511.146 150.168 515.897 152.711C517.23 153.425 517.646 154.181 517.038 154.789C516.018 155.809 480.782 158.984 479.931 158.132C479.653 157.854 480.638 156.36 482.122 154.812C483.605 153.264 485.26 150.459 485.799 148.579C486.396 146.497 486.779 118.718 486.779 77.5233V9.88556L483.543 6.72247C479.36 2.63251 480.375 1.98754 492.209 1.21954C497.197 0.895545 502.854 0.464513 504.779 0.262513ZM533.947 19.6785C529.876 18.5475 512.494 18.2672 511.446 19.3152C511.079 19.6824 510.779 31.2197 510.779 44.9529V69.9256L519.529 69.4158C537.002 68.3998 544.312 61.8822 545.49 46.2674C546.563 32.0544 542.183 21.9656 533.947 19.6785Z" fill="white"/>
<path fill-rule="evenodd" clip-rule="evenodd" d="M420.804 9.25372C424.043 8.07988 427.906 7.71356 434.779 7.92755C443.061 8.18455 444.959 8.59302 449.583 11.1229C461.771 17.7899 468.145 30.0703 471.915 54.1483C473.52 64.3964 473.544 96.8953 471.955 106.648C466.838 138.039 456.024 157.479 439.024 165.848C430.102 170.24 418.205 170.943 409.338 167.601C390.082 160.343 380.438 132.407 382.08 88.6483C383.737 44.5143 396.669 17.9997 420.804 9.25372ZM441.68 35.493C437.863 27.925 430.012 25.3795 423.236 29.5115C413.397 35.5115 408.766 49.0331 406.688 77.8328C404.905 102.545 407.53 129.361 412.731 139.555C415.96 145.883 420.048 148.648 426.176 148.648C435.801 148.648 441.778 141.031 445.2 124.403C451.234 95.0852 449.488 50.974 441.68 35.493Z" fill="white"/>
</svg>
